PathFileType	4	(X/Y/Z)	s06c0201.trc
DataRate	CameraRate	NumFrames	NumMarkers	Units	OrigDataRate	OrigDataStartFrame	OrigNumFrames
200	200	4	49	mm	200	1000	2000
Frame#	Time	racr			lacr			c7			jug			rlel			rdr			llel			ldr			s2			lic			ric			lasi			rasi			rpsi			lpsi			rgt			lgt			rth1			rth2			rth3			rth4			rlfc			rmfc			rsh1			rsh2			rsh3			rsh4			rlmal			rmmal			rcal			rtoe			rmt5			lth1			lth2			lth4			lth3			llfc			lmfc			llmal			lcal			lmt5			lsh1			lsh2			lsh3			lsh4			ltoe			SBIKE			LBIKE			RBIKE			
		X1	Y1	Z1	X2	Y2	Z2	X3	Y3	Z3	X4	Y4	Z4	X5	Y5	Z5	X6	Y6	Z6	X7	Y7	Z7	X8	Y8	Z8	X9	Y9	Z9	X10	Y10	Z10	X11	Y11	Z11	X12	Y12	Z12	X13	Y13	Z13	X14	Y14	Z14	X15	Y15	Z15	X16	Y16	Z16	X17	Y17	Z17	X18	Y18	Z18	X19	Y19	Z19	X20	Y20	Z20	X21	Y21	Z21	X22	Y22	Z22	X23	Y23	Z23	X24	Y24	Z24	X25	Y25	Z25	X26	Y26	Z26	X27	Y27	Z27	X28	Y28	Z28	X29	Y29	Z29	X30	Y30	Z30	X31	Y31	Z31	X32	Y32	Z32	X33	Y33	Z33	X34	Y34	Z34	X35	Y35	Z35	X36	Y36	Z36	X37	Y37	Z37	X38	Y38	Z38	X39	Y39	Z39	X40	Y40	Z40	X41	Y41	Z41	X42	Y42	Z42	X43	Y43	Z43	X44	Y44	Z44	X45	Y45	Z45	X46	Y46	Z46	X47	Y47	Z47	X48	Y48	Z48	X49	Y49	Z49	
1000	5.0000	495.913856	1259.062961	-65.453713	529.178275	1236.665476	-379.719310	504.462585	1352.658198	-225.420661	508.686608	1184.764699	-213.805352	456.437192	1016.505462	64.781527	643.404643	938.464906	-46.845724	455.864272	1000.152869	-505.763575	649.168529	925.207112	-427.230336	-23.778010	1125.410209	-262.711396	152.467814	1099.964857	-411.753505	105.951445	1111.976137	-84.012613	171.907844	1052.145251	-366.933619	145.961971	1074.175434	-114.552639	5.026226	1171.518704	-234.966727	7.392988	1161.579679	-294.439997	76.866294	1022.029318	-58.144989	141.978485	1033.838162	-441.781812	162.651185	913.702374	-29.747821	228.647350	851.233635	-27.248308	254.585043	767.754794	-35.325350	258.894764	871.609861	-38.512065	295.281105	667.131492	-44.962063	295.172537	640.326462	-151.611982	275.972460	545.388437	-22.996312	287.303145	460.605651	-41.836850	256.426593	379.806894	-49.694850	311.831296	462.750134	-74.962038	238.794608	300.276881	-55.889834	271.316545	309.965126	-149.941078	177.347379	273.161269	-105.484947	451.441845	240.084528	-103.980215	353.114411	223.847599	-34.150103	210.511135	951.317310	-446.400009	292.118493	922.566222	-436.232717	311.016957	951.067854	-421.675926	350.411180	854.981666	-431.626867	391.269438	759.990711	-401.503410	386.682410	747.893821	-286.501358	93.904020	549.110545	-381.341581	27.836801	583.458088	-334.241929	112.646876	406.309565	-407.357013	317.989677	683.368914	-418.100721	261.224011	622.807970	-392.694629	179.693112	589.377826	-395.954640	276.373388	610.483386	-359.617362	170.297551	340.532705	-349.799466	-203.996470	867.852340	-221.109775	-50.176902	79.315057	-420.130357	-50.271765	79.355521	-22.757546	
1001	5.0050	495.487067	1261.526746	-66.115843	528.666681	1237.506547	-380.310812	504.490031	1353.613998	-226.865229	507.591308	1186.334522	-215.261331	457.960991	1018.472498	63.362227	645.127755	939.067306	-47.044802	455.402025	1000.887530	-505.642110	648.621938	925.568080	-426.557328	-23.533204	1125.169860	-259.934700	151.132833	1100.473672	-410.800819	107.806402	1113.040541	-82.401352	172.015842	1053.549875	-365.012893	147.818914	1075.450763	-113.300473	4.833989	1171.675667	-232.303698	7.893196	1161.934889	-294.688154	78.196786	1020.867092	-56.688521	142.190371	1036.812623	-439.909071	161.362237	910.723779	-28.330883	225.378214	846.594763	-26.053320	248.979525	762.228489	-35.084625	256.335162	866.116944	-37.265624	287.957858	661.374398	-44.507016	287.603528	634.700792	-151.130679	269.331742	539.717344	-22.244859	281.556774	455.070059	-40.952545	251.347211	373.903595	-48.964830	306.024137	457.378385	-74.133791	234.597141	294.567941	-55.120387	267.757259	303.148709	-149.189572	172.988510	268.812666	-104.744841	446.192972	228.797334	-104.112212	347.680554	215.034176	-33.953475	212.105637	955.468868	-444.523837	294.395120	928.368459	-435.308365	313.012067	957.462334	-421.477567	354.028743	861.779171	-431.020381	397.275307	768.660518	-400.225794	392.547456	756.276040	-285.327591	99.588453	558.239404	-381.111928	32.785028	592.091642	-334.099201	119.143218	415.683490	-407.237362	324.327095	692.206637	-416.803751	267.218939	631.635506	-391.594352	185.727941	598.634212	-395.167313	282.224643	619.423846	-358.682904	177.349517	350.350183	-349.737463	-204.060864	867.839115	-220.774642	-50.166554	79.383442	-420.096190	-50.267563	79.357449	-22.694616	
1002	5.0100	495.197665	1263.429890	-67.256384	528.108748	1238.076759	-380.950176	504.795438	1354.347344	-228.326366	506.440090	1187.661640	-216.670880	459.556420	1020.434955	61.874909	646.920913	939.970229	-46.986268	454.915677	1001.522254	-505.541444	648.303452	926.597977	-426.712584	-23.514928	1125.706441	-257.101054	149.641934	1101.303497	-409.814810	109.891808	1114.137893	-80.704933	171.952357	1055.136471	-363.589268	149.754351	1076.542452	-111.892514	5.179563	1172.246893	-229.830259	7.131454	1162.295409	-291.525055	79.586456	1020.410842	-55.104386	141.842892	1040.369531	-437.858747	160.530131	909.324444	-24.405690	221.967348	842.754818	-24.916136	246.073924	758.272132	-33.424985	253.537377	861.510333	-36.165836	280.703959	656.393624	-43.766754	279.926739	630.310924	-150.801312	262.714246	534.652519	-21.437315	275.512943	450.377544	-40.065173	245.912972	368.845756	-48.160591	299.992878	452.714238	-73.411256	230.315080	289.316793	-54.493068	263.561983	297.192302	-148.305991	168.508553	265.337212	-103.864724	440.527703	217.697700	-104.207221	341.848317	206.703294	-33.758662	213.021825	959.836051	-442.809390	295.992181	934.485246	-434.355600	314.229276	964.105799	-421.073361	356.757923	869.511671	-430.358518	403.023137	777.705572	-398.793617	398.081082	765.535822	-284.079849	105.395114	567.062363	-380.739611	37.902424	600.254735	-333.771529	126.113159	424.912794	-407.043631	330.379996	701.302060	-415.419409	273.250226	640.731640	-390.563835	191.751244	607.512031	-394.401282	288.137812	628.419523	-357.515853	184.997408	360.154384	-349.752702	-204.120292	867.854355	-220.375597	-50.165383	79.497688	-420.065005	-50.255595	79.381401	-22.657235	
1003	5.0150	494.468756	1264.756912	-69.378963	527.627024	1238.498346	-381.546861	505.267652	1354.837329	-229.807446	505.332826	1188.766503	-218.052231	461.075098	1022.410038	60.503930	648.735887	940.921430	-46.718095	454.532316	1002.093688	-505.582316	649.017827	926.891892	-424.889718	-23.520549	1126.468476	-254.219111	148.159395	1102.346204	-408.866587	112.064991	1115.417090	-79.148107	171.664065	1057.101139	-362.249810	151.493664	1077.637961	-110.764780	5.127408	1172.681578	-226.573918	6.484998	1163.145659	-288.585709	80.911106	1020.486436	-53.423211	141.046819	1044.321473	-435.621787	158.784874	907.875726	-22.757349	218.284735	839.673961	-23.872158	237.168578	754.286262	-34.057216	250.267249	857.549317	-35.180536	273.177233	652.306517	-43.045973	272.115410	626.680154	-150.477665	256.003711	530.582939	-20.684773	269.286076	446.131677	-39.252673	240.239484	364.411942	-47.229825	293.709109	448.660307	-72.465030	225.986615	284.818647	-53.815318	259.272477	291.876547	-147.318025	163.799090	262.891074	-102.930347	434.338797	206.902559	-104.369715	335.655211	198.910733	-33.533857	213.275454	964.427153	-441.355969	296.888141	940.910239	-433.472944	314.804573	971.143846	-420.688681	359.328511	877.227056	-429.360061	408.543868	787.091841	-397.309209	403.118752	775.205211	-282.196706	111.204421	575.558382	-380.284536	42.976119	607.722721	-333.318150	133.558515	433.717226	-406.810320	336.167523	710.696394	-414.069858	278.642511	650.157453	-389.049285	197.475231	616.271736	-393.648692	294.072197	637.453732	-356.347008	193.367932	369.795734	-349.725662	-204.138928	867.953629	-220.249088	-50.165788	79.613883	-420.020344	-50.250235	79.403863	-22.616289	
